<svg xmlns="http://www.w3.org/2000/svg" version="1.1" xmlns:xlink="http://www.w3.org/1999/xlink" xmlns:svgjs="http://svgjs.dev/svgjs" width="100%" height="100%" viewBox="0 0 1000 600"><rect width="1000" height="600" x="0" y="0" fill="#f9d342"/><g><circle r="166.66666666666666" cx="380.60280863444007" cy="402.8250558403631" fill="#292826" transform="matrix(0.584286571261089,0,0,0.5842865712610891,0,64.63475387888528)"/><path d="M371.7128245251172 468.4340583935028L371.7128245251172 477.8250797676616Q366.0036427964103 477.8250797676616 360.8071222841587 476.89296846501554Q355.61060177190706 475.98415994493564 351.6724315182276 473.5373677754898Q347.710958481982 471.11387838861015 345.4505885730654 466.82616639643845Q343.1902186641488 462.5617571868329 343.1902186641488 455.85055580778146L343.1902186641488 455.85055580778146L343.1902186641488 419.9409678733433Q343.1902186641488 416.2358254453253 340.99975710293063 414.0686666666734Q338.8325983242786 411.87820510545515 335.54690598245134 410.9693965853753Q332.28451642319027 410.0372852827293 328.92891573366455 410.0372852827293L328.92891573366455 410.0372852827293L328.92891573366455 395.7759823522451Q332.28451642319027 395.7759823522451 335.54690598245134 394.84387104959904Q338.8325983242786 393.93506252951914 340.99975710293063 391.74460096830103Q343.1902186641488 389.577442189649 343.1902186641488 386.0354192395941L343.1902186641488 386.0354192395941L343.1902186641488 349.79959234922984Q343.1902186641488 343.0883909701784 345.4505885730654 338.82398176057285Q347.710958481982 334.53626976840116 351.6724315182276 332.1127803815215Q355.61060177190706 329.66598821207566 360.8071222841587 328.75717969199576Q366.0036427964103 327.8250683893497 371.7128245251172 327.8250683893497L371.7128245251172 327.8250683893497L371.7128245251172 337.2160897635085Q368.8698850520468 337.2160897635085 365.4210732322565 338.05498993588986Q361.9722614124662 338.8938901082713 359.5487720255866 341.0843516694895Q357.1252826387069 343.25151044814146 356.93886037817765 347.6324335705778L356.93886037817765 347.6324335705778L355.447482293944 384.35761889483126Q355.09794055545177 392.74662061864547 351.579220387963 397.4537826970079Q348.0605002204743 402.16094477537035 338.48305658578636 402.16094477537035L338.48305658578636 402.16094477537035L338.48305658578636 403.652322859604Q344.86801900891163 403.652322859604 348.479950306665 405.8427844208221Q352.09188160441835 408.0332459820403 353.6764708189166 411.97141623571974Q355.2610600334148 415.9095864893992 355.447482293944 421.4556487401431L355.447482293944 421.4556487401431L356.93886037817765 458.0177145864335Q357.1252826387069 462.2122154483406 359.5487720255866 464.47258535725723Q361.9722614124662 466.75625804873994 365.3278621019919 467.59515822112144Q368.6834627915176 468.4340583935028 371.7128245251172 468.4340583935028L371.7128245251172 468.4340583935028ZM389.3297281451271 337.2160897635085L389.3297281451271 327.8250683893497Q395.2020293517971 327.8250683893497 400.3286415163502 328.75717969199576Q405.4319508983372 329.66598821207566 409.46333228228127 332.1127803815215Q413.4947136662253 334.53626976840116 415.75508357514195 338.82398176057285Q418.0154534840585 343.0883909701784 418.0154534840585 349.79959234922984L418.0154534840585 349.79959234922984L418.0154534840585 385.709180283668Q418.0154534840585 389.22790045115676 420.2059150452767 391.48827036007333Q422.37307382392873 393.7719430515561 425.658766165756 394.680751571636Q428.92115572501706 395.612862874282 432.2767564145428 395.612862874282L432.2767564145428 395.612862874282L432.2767564145428 409.8741658047662Q428.92115572501706 409.8741658047662 425.658766165756 410.7829743248461Q422.37307382392873 411.7150856274921 420.2059150452767 413.9055471887103Q418.0154534840585 416.07270596736225 418.0154534840585 419.591426134851L418.0154534840585 419.591426134851L418.0154534840585 455.85055580778146Q418.0154534840585 462.5617571868329 415.75508357514195 466.82616639643845Q413.4947136662253 471.11387838861015 409.46333228228127 473.5373677754898Q405.4319508983372 475.98415994493564 400.3286415163502 476.89296846501554Q395.2020293517971 477.8250797676616 389.3297281451271 477.8250797676616L389.3297281451271 477.8250797676616L389.3297281451271 468.4340583935028Q392.3590898787267 468.4340583935028 395.71469056825237 467.59515822112144Q399.0702912577781 466.75625804873994 401.58699177492235 464.47258535725723Q404.1036922920666 462.2122154483406 404.2668117700297 458.0177145864335L404.2668117700297 458.0177145864335L405.78149263682946 421.2692264796139Q406.10773159275556 412.88022475579965 409.6264517602443 408.19636546000334Q413.1451719277331 403.48920338164095 422.72261556242097 403.48920338164095L422.72261556242097 403.48920338164095L422.72261556242097 401.97452251484117Q416.3376531392957 401.97452251484117 412.72572184154234 399.80736373618913Q409.13709332635517 397.61690217497096 407.52920132929074 393.6787319212915Q405.9446121147925 389.74056166761204 405.78149263682946 384.1944994168682L405.78149263682946 384.1944994168682L404.2668117700297 347.6324335705778Q404.1036922920666 343.25151044814146 401.6569001226208 341.0843516694895Q399.23341073574113 338.8938901082713 395.8778100462154 338.05498993588986Q392.52220935668976 337.2160897635085 389.3297281451271 337.2160897635085L389.3297281451271 337.2160897635085Z " fill="#f9d342" transform="matrix(0.584286571261089,0,0,0.5842865712610891,0,64.63475387888528)"/><path d="M649.3953515738206 475.38742929421136L630.6028352714327 475.38742929421136L630.6028352714327 335.3931034759707L660.6198409490023 335.3931034759707L692.4509055154904 426.20942660244225Q693.6697263314823 429.86588905041816 695.0019258280317 434.25931292201716Q696.334125324581 438.6527367936161 697.4395674600157 442.5359566027068Q698.5733542655896 446.4191764117975 699.168592338516 449.2536434257323L699.168592338516 449.2536434257323L700.6141705156226 449.2536434257323Q701.209408588549 446.1924190506827 702.2298167135655 442.22416523117397Q703.250224838582 438.25591141166524 704.4973903247133 433.94752155048434Q705.7162111407054 429.66747635944273 706.7366192657219 426.20942660244225L706.7366192657219 426.20942660244225L738.5676838322098 335.3931034759707L768.3579321486649 335.3931034759707L768.3579321486649 475.38742929421136L748.9701777733507 475.38742929421136L748.9701777733507 393.35795391093774Q748.9701777733507 387.0087477997237 749.168590464326 379.5824442232145Q749.3953478254408 372.12779597656595 749.5937605164162 365.8919685459093Q749.7921732073918 359.6844857853921 749.7921732073918 357.0200867922934L749.7921732073918 357.0200867922934L748.1481823393095 357.0200867922934Q747.5529442663832 359.6844857853921 746.1073660892765 364.47473503894196Q744.690132582309 369.2649842924918 743.1595203947842 374.48040359813183Q741.6289082072595 379.66747823363255 740.4100873912674 383.7491107336987L740.4100873912674 383.7491107336987L707.558614699763 475.38742929421136L690.8069146474081 475.38742929421136L657.9554419559036 383.7491107336987Q656.7366211399117 380.29106097669825 655.4044216433623 375.6992244141238Q654.0722221468129 371.1073878515494 652.7400226502637 366.2037599174422Q651.4361678238536 361.30013198333495 650.1890023377223 357.0200867922934L650.1890023377223 357.0200867922934L648.7717688307548 357.0200867922934Q648.9701815217302 361.4985446743104 649.0835602022876 368.1311974869178Q649.1685942127058 374.7638502995253 649.2819728932632 381.3965031121328Q649.3953515738206 388.0291559247403 649.3953515738206 393.35795391093774L649.3953515738206 393.35795391093774L649.3953515738206 475.38742929421136ZM822.8647328266312 475.38742929421136L803.4769784513172 475.38742929421136L803.4769784513172 335.3931034759707L822.8647328266312 335.3931034759707L822.8647328266312 475.38742929421136ZM876.7196060913928 475.38742929421136L857.9554344591444 475.38742929421136L857.9554344591444 335.3931034759707L887.9440954665748 335.3931034759707L919.8035047032021 426.20942660244225Q921.0223255191942 429.86588905041816 922.3545250157434 434.25931292201716Q923.6583798421535 438.6527367936161 924.7921666477274 442.5359566027068Q925.9259534533013 446.4191764117975 926.5211915262277 449.2536434257323L926.5211915262277 449.2536434257323L927.9667697033343 449.2536434257323Q928.5620077762607 446.1924190506827 929.5824159012772 442.22416523117397Q930.6028240262937 438.25591141166524 931.8216448422858 433.94752155048434Q933.068810328417 429.66747635944273 934.0892184534335 426.20942660244225L934.0892184534335 426.20942660244225L965.9202830199216 335.3931034759707L995.7105313363764 335.3931034759707L995.7105313363764 475.38742929421136L976.3227769610622 475.38742929421136L976.3227769610622 393.35795391093774Q976.3227769610622 387.0087477997237 976.5211896520378 379.5824442232145Q976.7196023430132 372.12779597656595 976.946359704128 365.8919685459093Q977.1447723951034 359.6844857853921 977.1447723951034 357.0200867922934L977.1447723951034 357.0200867922934L975.5007815270213 357.0200867922934Q974.905543454095 359.6844857853921 973.4599652769881 364.47473503894196Q972.0427317700209 369.2649842924918 970.512119582496 374.48040359813183Q968.9815073949711 379.66747823363255 967.7626865789792 383.7491107336987L967.7626865789792 383.7491107336987L934.8828692173353 475.38742929421136L918.1595138351198 475.38742929421136L885.3080411436152 383.7491107336987Q884.0892203276234 380.29106097669825 882.7570208310741 375.6992244141238Q881.4248213345246 371.1073878515494 880.0926218379753 366.2037599174422Q878.7604223414259 361.30013198333495 877.541601525434 357.0200867922934L877.541601525434 357.0200867922934L876.1243680184665 357.0200867922934Q876.3227807094419 361.4985446743104 876.4361593899995 368.1311974869178Q876.5211934004175 374.7638502995253 876.6345720809749 381.3965031121328Q876.7196060913928 388.0291559247403 876.7196060913928 393.35795391093774L876.7196060913928 393.35795391093774L876.7196060913928 475.38742929421136ZM1090.6084869629144 477.8250709261953L1090.6084869629144 477.8250709261953Q1069.1799163375672 477.8250709261953 1054.2706198442697 469.97359729759586Q1039.389668021112 462.12212366899644 1031.5381943925127 446.1073850402647Q1023.6583760937739 430.09264641153294 1023.6583760937739 405.3760940500214L1023.6583760937739 405.3760940500214Q1023.6583760937739 368.8681589105409 1041.430484271145 350.89763804219416Q1059.1742477783769 332.9271171738474 1090.8068996538896 332.9271171738474L1090.8068996538896 332.9271171738474Q1108.7774205222363 332.9271171738474 1122.6379642203779 338.76611922255313Q1136.5268525886581 344.57677660111955 1144.3783262172574 356.31147003880966Q1152.229799845857 368.0461634764998 1152.229799845857 385.7899269837318L1152.229799845857 385.7899269837318L1132.6436327795677 385.7899269837318Q1132.6436327795677 373.54502948353337 1127.456558144067 365.5801771743765Q1122.2411388384267 357.64366953535904 1112.8590530223028 353.6470710457109Q1103.4769672061784 349.67881722620217 1090.8068996538896 349.67881722620217L1090.8068996538896 349.67881722620217Q1076.1243605217073 349.67881722620217 1065.495109219452 355.37609592421114Q1054.8942025873357 361.1017192923595 1049.3953365803018 373.03482542102506Q1043.868125903129 384.96793154969066 1043.868125903129 403.7604478520785L1043.868125903129 403.7604478520785L1043.868125903129 408.0404930431201Q1043.868125903129 426.6062519843931 1049.3953365803018 438.3409454220833Q1054.8942025873357 450.07563885977345 1065.4100752090335 455.60284953694634Q1075.9259478307317 461.1017155439799 1090.8068996538896 461.1017155439799L1090.8068996538896 461.1017155439799Q1103.8737925881292 461.1017155439799 1113.3692570848107 457.2184957348892Q1122.8647215814926 453.33527592579844 1128.051796216993 445.2853896062236Q1133.2672155226333 437.23550328664874 1133.2672155226333 424.99060578645026L1133.2672155226333 424.99060578645026L1152.229799845857 424.99060578645026Q1152.229799845857 443.13119467563314 1144.1799135262822 454.7808541029052Q1136.1300272067074 466.402168860038 1122.2411388384267 472.1277922281863Q1108.3522504701464 477.8250709261953 1090.6084869629144 477.8250709261953ZM1220.0019061490384 477.8250709261953L1220.0019061490384 477.8250709261953Q1203.675376148774 477.8250709261953 1192.5359207840102 471.8160008566535Q1181.4248100893856 465.8069307871117 1175.6141527108193 453.33527592579844Q1169.803495332253 440.8919657346246 1169.803495332253 421.7026240502859L1169.803495332253 421.7026240502859Q1169.803495332253 402.31486967497176 1175.6141527108193 389.9849381643553Q1181.4248100893856 377.6266619835995 1192.5359207840102 371.6175919140577Q1203.675376148774 365.5801771743765 1220.0019061490384 365.5801771743765L1220.0019061490384 365.5801771743765Q1236.328436149303 365.5801771743765 1247.439546843928 371.6175919140577Q1258.5790022086917 377.6266619835995 1264.2762809067003 389.9849381643553Q1270.001904274849 402.31486967497176 1270.001904274849 421.7026240502859L1270.001904274849 421.7026240502859Q1270.001904274849 440.8919657346246 1264.2762809067003 453.33527592579844Q1258.5790022086917 465.8069307871117 1247.439546843928 471.8160008566535Q1236.328436149303 477.8250709261953 1220.0019061490384 477.8250709261953ZM1220.0019061490384 462.7457064120621L1220.0019061490384 462.7457064120621Q1230.4044000901795 462.7457064120621 1237.3488442743196 458.66407391199596Q1244.2932884584602 454.5824414119298 1247.8647168960179 445.90897234928923Q1251.436145333576 437.23550328664874 1251.436145333576 423.97019766143376L1251.436145333576 423.97019766143376L1251.436145333576 419.46339510927737Q1251.436145333576 405.999676793087 1247.8647168960179 397.43958641100386Q1244.2932884584602 388.85115135878135 1237.3488442743196 384.76951885871523Q1230.4044000901795 380.6878863586491 1220.0019061490384 380.6878863586491L1220.0019061490384 380.6878863586491Q1209.5994122078978 380.6878863586491 1202.5415893432 384.76951885871523Q1195.512111148642 388.85115135878135 1192.0257167215018 397.43958641100386Q1188.5676669645013 405.999676793087 1188.5676669645013 419.46339510927737L1188.5676669645013 419.46339510927737L1188.5676669645013 423.97019766143376Q1188.5676669645013 437.23550328664874 1192.0257167215018 445.90897234928923Q1195.512111148642 454.5824414119298 1202.5415893432 458.66407391199596Q1209.5994122078978 462.7457064120621 1220.0019061490384 462.7457064120621ZM1328.7604054737176 477.8250709261953L1328.7604054737176 477.8250709261953Q1315.4950998485028 477.8250709261953 1306.0279800219605 471.9293795372109Q1296.532515525279 466.00534347808707 1291.3170962196386 453.44865460635583Q1286.130021584138 440.8919657346246 1286.130021584138 420.90897328638414L1286.130021584138 420.90897328638414Q1286.130021584138 401.9180442930209 1291.4304749001963 389.6731467928225Q1296.7309282162541 377.42824929262406 1306.1130140323785 371.5042132335003Q1315.4950998485028 365.5801771743765 1327.966754709816 365.5801771743765L1327.966754709816 365.5801771743765Q1335.1096115849318 365.5801771743765 1341.2320603350308 367.2241680424587Q1347.3545090851298 368.8681589105409 1352.1447583386798 372.3262086675414Q1356.9350075922298 375.78425842454186 1360.619814710345 381.5098817926902L1360.619814710345 381.5098817926902L1361.838635526337 381.5098817926902L1361.838635526337 327.82507654876474L1379.7808117245445 327.82507654876474L1379.7808117245445 475.38742929421136L1365.2966852833374 475.38742929421136L1363.6810390853943 460.0813074189633L1362.2354609082877 460.0813074189633Q1356.7365949012542 469.0665678531367 1347.9497471580562 473.4599917247357Q1339.1912440849978 477.8250709261953 1328.7604054737176 477.8250709261953ZM1333.0687953348984 462.12212366899644L1333.0687953348984 462.12212366899644Q1343.2728765850638 462.12212366899644 1349.5937380261385 457.6436657869794Q1355.914599467213 453.136863234823 1358.8624451617052 444.57677285273985Q1361.838635526337 435.9883378005174 1361.838635526337 423.3466149183681L1361.838635526337 423.3466149183681L1361.838635526337 420.086977852343Q1361.838635526337 409.06090116813664 1359.5994065853283 401.52121891107004Q1357.3318329741805 393.95319198386403 1353.4769578352293 389.47473410184705Q1349.5937380261385 384.96793154969066 1344.4916974010557 383.1538726607724Q1339.389656775973 381.31146910171475 1333.6640334078247 381.31146910171475L1333.6640334078247 381.31146910171475Q1323.6583648486348 381.31146910171475 1317.3375034075602 385.2797229212235Q1311.0166419664856 389.27632141087156 1307.955417591436 397.72303311239733Q1304.8941932163866 406.19808948406245 1304.8941932163866 419.66180780025286L1304.8941932163866 419.66180780025286L1304.8941932163866 423.97019766143376Q1304.8941932163866 437.83074135957503 1308.1538302824115 446.3057977312401Q1311.4134673484364 454.7808541029052 1317.649294779093 458.4373165508811Q1323.8851222097496 462.12212366899644 1333.0687953348984 462.12212366899644ZM1450.8125550937507 477.8250709261953L1450.8125550937507 477.8250709261953Q1434.8828504754374 477.8250709261953 1423.970152471788 471.8160008566535Q1413.057454468139 465.8069307871117 1407.4452097805483 453.33527592579844Q1401.8329650929572 440.8919657346246 1401.8329650929572 421.7026240502859L1401.8329650929572 421.7026240502859Q1401.8329650929572 402.31486967497176 1407.4452097805483 389.9849381643553Q1413.057454468139 377.6266619835995 1424.0835311523456 371.6175919140577Q1435.1096078365517 365.5801771743765 1451.6345505277923 365.5801771743765L1451.6345505277923 365.5801771743765Q1466.7422597120644 365.5801771743765 1476.94634096223 371.4191792230822Q1487.1504222123954 377.2298366016486 1492.337496847896 388.7661173483633Q1497.552916153536 400.2740534249387 1497.552916153536 417.62099155021974L1497.552916153536 417.62099155021974L1497.552916153536 426.20942660244225L1420.3987240342303 426.20942660244225Q1420.8238940863207 439.04956217556696 1424.1685651627636 447.32620585625665Q1427.541580909346 455.60284953694634 1434.287612402511 459.37269066547964Q1441.0052992255364 463.14253179401294 1451.209380475702 463.14253179401294L1451.209380475702 463.14253179401294Q1458.153824659842 463.14253179401294 1463.3692439654824 461.4135069155127Q1468.5563186009826 459.68448203701246 1472.1277470385407 456.39650030084806Q1475.6991754760984 453.136863234823 1477.5415790351562 448.658405352806Q1479.3839825942136 444.1516028006497 1479.5823952851892 438.85114948459153L1479.5823952851892 438.85114948459153L1497.1277461014456 438.85114948459153Q1496.9293334104705 447.43958453681404 1493.8681090354207 454.6674754223478Q1490.806884660371 461.92371097802095 1484.8828486012476 467.02575160310363Q1478.987157212263 472.1277922281863 1470.3987221600405 474.99060391226044Q1461.8386317779573 477.8250709261953 1450.8125550937507 477.8250709261953ZM1420.8238940863207 412.7457082862519L1420.8238940863207 412.7457082862519L1478.987157212263 412.7457082862519Q1478.987157212263 403.7604478520785 1476.94634096223 397.6379991019793Q1474.905524712197 391.5155503518801 1471.1073389135245 387.6323305427894Q1467.3374977849908 383.7491107336987 1462.3488358404657 382.0200858551985Q1457.331829225801 380.29106097669825 1451.0109677847263 380.29106097669825L1451.0109677847263 380.29106097669825Q1441.628881968602 380.29106097669825 1435.1096078365517 383.7491107336987Q1428.5619890343623 387.2355051608385 1425.1039392773623 394.3783620359543Q1421.6175448502222 401.52121891107004 1420.8238940863207 412.7457082862519Z " fill="#292826" transform="matrix(0.584286571261089,0,0,0.5842865712610891,0,64.63475387888528)"/></g></svg>