<svg xmlns="http://www.w3.org/2000/svg" version="1.1" xmlns:xlink="http://www.w3.org/1999/xlink" xmlns:svgjs="http://svgjs.dev/svgjs" width="100%" height="100%" viewBox="0 0 1000 600"><rect width="1000" height="600" x="0" y="0" fill="#ffffff"/><g><circle r="166.66666666666666" cx="399.76781717936194" cy="344.43245922599357" fill="#ff" transform="matrix(0.8036335642842432,0,0,0.8036335642842434,-12.23910660179002,23.20254756195422)"/><path d="M210.6507142499192 277.3988732079673L220.86406025388936 277.3988732079673L220.86406025388936 291.7656465868854L213.85089599782984 291.7656465868854Q206.99660601294318 291.7656465868854 203.63754999385964 294.4892055212774Q200.2784939747761 297.1900681312162 199.2571593743791 302.70527497336013Q198.21312844952882 308.19778549105075 198.21312844952882 316.5046402409465L198.21312844952882 316.5046402409465L198.21312844952882 333.25452768745765Q198.21312844952882 338.2023264182699 195.33069524396387 342.12879054868506Q192.47095836285223 346.032558354647 187.84090817438573 348.41567242224005L187.84090817438573 348.41567242224005Q192.47095836285223 350.82148281428636 195.33069524396387 354.65716164688854Q198.21312844952882 358.47014415503736 198.21312844952882 363.57681715702256L198.21312844952882 363.57681715702256L198.21312844952882 380.34940092798695Q198.21312844952882 388.6335593534294 199.2571593743791 394.14876619557333Q200.2784939747761 399.6412767132639 203.63754999385964 402.36483564765604Q206.99660601294318 405.0656982575948 213.85089599782984 405.0656982575948L213.85089599782984 405.0656982575948L220.86406025388936 405.0656982575948L220.86406025388936 419.4324716365129L210.6507142499192 419.4324716365129Q202.36655582447668 419.4324716365129 196.05697762646844 415.52870383055085Q189.7473994284602 411.6249360245889 186.25216546265705 404.99760928423495Q182.73423517240064 398.370282543881 182.73423517240064 390.40387266078426L182.73423517240064 390.40387266078426L182.73423517240064 368.68349015900765Q182.73423517240064 361.51145163177523 180.4872990515272 358.5609294528505Q178.26305925510704 355.6104072739257 170.7732721855289 355.6104072739257L170.7732721855289 355.6104072739257L170.7732721855289 341.24363389500763Q178.26305925510704 341.24363389500763 180.4872990515272 338.293111716083Q182.73423517240064 335.34258953715823 182.73423517240064 328.14785468547257L182.73423517240064 328.14785468547257L182.73423517240064 306.4501685081492Q182.73423517240064 298.32488435387955 186.25216546265705 291.7656465868854Q189.7473994284602 285.22910514434443 196.05697762646844 281.3253373383825Q202.36655582447668 277.3988732079673 210.6507142499192 277.3988732079673L210.6507142499192 277.3988732079673ZM240.81412944831118 307.72116267753216L253.90990865784627 307.72116267753216L253.90990865784627 317.9345086815024Q257.74558749044843 313.64490335983487 263.7147208216577 309.8773135005925Q269.7065504773202 306.1324199658034 277.8318346315898 306.1324199658034L277.8318346315898 306.1324199658034Q286.4564379238313 306.1324199658034 293.9689213178627 310.1950620429383Q301.4587083874409 314.2804004445263 305.45326149121587 322.40568459879603L305.45326149121587 322.40568459879603Q311.0365573067196 315.7102688850822 317.57309874926045 310.9213444254428Q324.13233651625467 306.1324199658034 332.8931177552158 306.1324199658034L332.8931177552158 306.1324199658034Q341.04109823393867 306.1324199658034 348.14504778781134 309.71843922941963Q355.2489973416839 313.3044584930359 359.6293879611644 320.5672823180813Q364.009778580645 327.83010614312684 364.009778580645 338.8378235029613L364.009778580645 338.8378235029613L364.009778580645 387.52143945521925L350.9366956955631 387.52143945521925L350.77782142439025 340.1315139967976Q350.77782142439025 329.75929372165456 345.4214888534192 324.33487217732375Q340.0878526069015 318.9104506329928 330.66887795879563 318.9104506329928L330.66887795879563 318.9104506329928Q323.7918916494557 318.9104506329928 318.6852186474706 323.20005595466034Q313.5785456454855 327.5123576007811 308.97119178147227 333.25452768745765L308.97119178147227 333.25452768745765L308.97119178147227 387.52143945521925L295.87541257193715 387.52143945521925L295.7165383007643 340.1315139967976Q295.7165383007643 329.75929372165456 290.3602057297933 324.33487217732375Q285.02656948327547 318.9104506329928 275.6075948351696 318.9104506329928L275.6075948351696 318.9104506329928Q269.0710533926287 318.9104506329928 263.7147208216577 322.72343314114175Q258.3810845751399 326.5591119737438 253.90990865784627 331.98353351807475L253.90990865784627 331.98353351807475L253.90990865784627 387.52143945521925L240.81412944831118 387.52143945521925L240.81412944831118 307.72116267753216ZM401.5268029018955 269.4324633248706L401.5268029018955 269.4324633248706Q406.156853090362 269.4324633248706 409.2662495404595 272.700734046141Q412.37564599055713 275.9690047674115 412.37564599055713 280.2813064135322L412.37564599055713 280.2813064135322Q412.37564599055713 284.4347337884801 409.2662495404595 287.77109348311035Q406.156853090362 291.1301495021939 401.5268029018955 291.1301495021939L401.5268029018955 291.1301495021939Q396.896752713429 291.1301495021939 393.7873562633314 287.77109348311035Q390.67795981323377 284.4347337884801 390.67795981323377 280.2813064135322L390.67795981323377 280.2813064135322Q390.67795981323377 275.9690047674115 393.7873562633314 272.700734046141Q396.896752713429 269.4324633248706 401.5268029018955 269.4324633248706ZM383.9598477750668 307.72116267753216L409.6520870561651 307.72116267753216L409.6520870561651 387.52143945521925L396.5790041710833 387.52143945521925L396.5790041710833 320.022570531203L383.9598477750668 320.022570531203L383.9598477750668 307.72116267753216ZM437.9090110004827 307.72116267753216L450.98209388556455 307.72116267753216L450.98209388556455 317.9345086815024Q454.8177727181667 313.64490335983487 460.80960237382914 309.8773135005925Q466.7787357050384 306.1324199658034 474.9267161837613 306.1324199658034L474.9267161837613 306.1324199658034Q483.5513194760028 306.1324199658034 491.041106545581 310.1950620429383Q498.5535899396124 314.2804004445263 502.5254467189342 322.40568459879603L502.5254467189342 322.40568459879603Q508.1314388588911 315.7102688850822 514.6679803014321 310.9213444254428Q521.2045217439729 306.1324199658034 529.9879993073873 306.1324199658034L529.9879993073873 306.1324199658034Q538.1132834616569 306.1324199658034 545.2172330155296 309.71843922941963Q552.3211825694021 313.3044584930359 556.7242695133359 320.5672823180813Q561.1046601328165 327.83010614312684 561.1046601328165 338.8378235029613L561.1046601328165 338.8378235029613L561.1046601328165 387.52143945521925L548.0088809232814 387.52143945521925L547.8500066521085 340.1315139967976Q547.8500066521085 329.75929372165456 542.5163704055907 324.33487217732375Q537.1600378346197 318.9104506329928 527.7410631865139 318.9104506329928L527.7410631865139 318.9104506329928Q520.8867732016272 318.9104506329928 515.7801001996421 323.20005595466034Q510.6734271976569 327.5123576007811 506.0433770091905 333.25452768745765L506.0433770091905 333.25452768745765L506.0433770091905 387.52143945521925L492.9702941241087 387.52143945521925L492.81141985293584 340.1315139967976Q492.81141985293584 329.75929372165456 487.4550872819647 324.33487217732375Q482.0987547109937 318.9104506329928 472.7024763873411 318.9104506329928L472.7024763873411 318.9104506329928Q466.14323862034695 318.9104506329928 460.80960237382914 322.72343314114175Q455.45326980285813 326.5591119737438 450.98209388556455 331.98353351807475L450.98209388556455 331.98353351807475L450.98209388556455 387.52143945521925L437.9090110004827 387.52143945521925L437.9090110004827 307.72116267753216ZM588.8622649391622 277.3988732079673L578.648918935192 277.3988732079673L578.648918935192 291.7656465868854L585.6847795157048 291.7656465868854Q592.5390695005915 291.7656465868854 595.898125519675 294.4892055212774Q599.2344852143052 297.1900681312162 600.2785161391556 302.70527497336013Q601.3225470640058 308.19778549105075 601.3225470640058 316.5046402409465L601.3225470640058 316.5046402409465L601.3225470640058 333.25452768745765Q601.3225470640058 338.2023264182699 604.1822839451174 342.12879054868506Q607.0647171506824 346.032558354647 611.6947673391489 348.41567242224005L611.6947673391489 348.41567242224005Q607.0647171506824 350.82148281428636 604.1822839451174 354.65716164688854Q601.3225470640058 358.47014415503736 601.3225470640058 363.57681715702256L601.3225470640058 363.57681715702256L601.3225470640058 380.34940092798695Q601.3225470640058 388.6335593534294 600.2785161391556 394.14876619557333Q599.2344852143052 399.6412767132639 595.898125519675 402.36483564765604Q592.5390695005915 405.0656982575948 585.6847795157048 405.0656982575948L585.6847795157048 405.0656982575948L578.648918935192 405.0656982575948L578.648918935192 419.4324716365129L588.8622649391622 419.4324716365129Q597.1691196890579 419.4324716365129 603.4786978870661 415.52870383055085Q609.7655797606212 411.6249360245889 613.2835100508776 404.99760928423495Q616.8014403411339 398.370282543881 616.8014403411339 390.40387266078426L616.8014403411339 390.40387266078426L616.8014403411339 368.68349015900765Q616.8014403411339 361.51145163177523 619.0256801375542 358.5609294528505Q621.2726162584277 355.6104072739257 628.7624033280057 355.6104072739257L628.7624033280057 355.6104072739257L628.7624033280057 341.24363389500763Q621.2726162584277 341.24363389500763 619.0256801375542 338.293111716083Q616.8014403411339 335.34258953715823 616.8014403411339 328.14785468547257L616.8014403411339 328.14785468547257L616.8014403411339 306.4501685081492Q616.8014403411339 298.32488435387955 613.2835100508776 291.7656465868854Q609.7655797606212 285.22910514434443 603.4786978870661 281.3253373383825Q597.1691196890579 277.3988732079673 588.8622649391622 277.3988732079673L588.8622649391622 277.3988732079673Z " fill="#ddff66" transform="matrix(0.8036335642842432,0,0,0.8036335642842434,-12.23910660179002,23.20254756195422)"/><path d="M703.0282884967849 312.302050985792L703.0282884967849 312.302050985792Q714.2318488021436 312.302050985792 722.4168332739343 315.8720974043389Q730.5727929780945 319.4421438228859 733.6203935792931 322.31559581830186L733.6203935792931 322.31559581830186L733.6203935792931 339.23703534686194Q727.9315391237224 334.9703945051838 720.5592481455847 331.8066948334633Q713.2159819350775 328.64299516174276 703.0282884967849 328.64299516174276L703.0282884967849 328.64299516174276Q692.202050170622 328.64299516174276 684.0460904664618 333.83842856759577Q675.8901307623016 339.03386197344867 671.4783660824712 347.50909412154397Q667.0956261702713 355.98432626963927 667.0956261702713 365.9688463345186L667.0956261702713 365.9688463345186Q667.0956261702713 375.7792177936152 671.4783660824712 384.2544499417105Q675.8901307623016 392.7006573221753 684.0460904664618 397.9251154956587Q692.202050170622 403.1205489015117 703.0282884967849 403.1205489015117L703.0282884967849 403.1205489015117Q713.2159819350775 403.1205489015117 720.5592481455847 399.95684922979115Q727.9315391237224 396.7931495580707 733.6203935792931 392.497483948762L733.6203935792931 392.497483948762L733.6203935792931 409.4479482449526Q730.5727929780945 412.49554884615134 722.4168332739343 415.9785209618069Q714.2318488021436 419.4324683098321 703.0282884967849 419.4324683098321L703.0282884967849 419.4324683098321Q687.500037814487 419.4324683098321 675.4837840154751 412.0892020993249Q663.4385054488329 404.7459358888176 656.5886602880435 392.61358301928396Q649.7678398948847 380.4522053821198 649.7678398948847 365.9688463345186L649.7678398948847 365.9688463345186Q649.7678398948847 351.4854872869174 656.5886602880435 339.23703534686194Q663.4385054488329 326.98858340680636 675.4837840154751 319.6453171962992Q687.500037814487 312.302050985792 703.0282884967849 312.302050985792ZM807.3142785930395 312.302050985792L807.3142785930395 312.302050985792Q822.8135045077069 312.302050985792 834.8587830743492 319.6453171962992Q846.9040616409915 326.98858340680636 853.7248820341504 339.23703534686194Q860.5747271949397 351.4854872869174 860.5747271949397 365.9688463345186L860.5747271949397 365.9688463345186Q860.5747271949397 380.4522053821198 853.7248820341504 392.61358301928396Q846.9040616409915 404.7459358888176 834.8587830743492 412.0892020993249Q822.8135045077069 419.4324683098321 807.3142785930395 419.4324683098321L807.3142785930395 419.4324683098321Q791.7860279107416 419.4324683098321 779.7407493440993 412.0892020993249Q767.7244955450875 404.7459358888176 760.8746503842982 392.61358301928396Q754.0538299911393 380.4522053821198 754.0538299911393 365.9688463345186L754.0538299911393 365.9688463345186Q754.0538299911393 351.4854872869174 760.8746503842982 339.23703534686194Q767.7244955450875 326.98858340680636 779.7407493440993 319.6453171962992Q791.7860279107416 312.302050985792 807.3142785930395 312.302050985792ZM807.3142785930395 328.64299516174276L807.3142785930395 328.64299516174276Q796.4880402668766 328.64299516174276 788.3320805627164 333.83842856759577Q780.1761208585563 339.03386197344867 775.7643561787258 347.50909412154397Q771.381616266526 355.98432626963927 771.381616266526 365.9688463345186L771.381616266526 365.9688463345186Q771.381616266526 375.7792177936152 775.7643561787258 384.2544499417105Q780.1761208585563 392.7006573221753 788.3320805627164 397.9251154956587Q796.4880402668766 403.1205489015117 807.3142785930395 403.1205489015117L807.3142785930395 403.1205489015117Q818.3146655249851 403.1205489015117 826.383550926254 397.9251154956587Q834.4524363275227 392.7006573221753 838.8351762397226 384.2544499417105Q843.2179161519226 375.7792177936152 843.2179161519226 365.9688463345186L843.2179161519226 365.9688463345186Q843.2179161519226 355.98432626963927 838.8351762397226 347.50909412154397Q834.4524363275227 339.03386197344867 826.383550926254 333.83842856759577Q818.3146655249851 328.64299516174276 807.3142785930395 328.64299516174276ZM963.6416770507149 269.4324691955976L980.3599432058618 269.4324691955976L980.3599432058618 416.38486770863335L963.6416770507149 416.38486770863335L963.6416770507149 399.0280566656163Q958.33014457434 407.213041137407 949.2453923060051 413.33726710743474Q940.16064003767 419.4324683098321 928.5217082178543 419.4324683098321L928.5217082178543 419.4324683098321Q915.4605627841458 419.4324683098321 904.6633492256135 412.81482129008646Q893.8371108994506 406.1681495027103 887.3936124854878 394.3550690771117Q880.9791388391554 382.51296388388266 880.9791388391554 366.9847132015849L880.9791388391554 366.9847132015849Q880.9791388391554 350.0632736730247 887.3936124854878 337.8148217329692Q893.8371108994506 325.56636979291363 905.06969597244 318.948722773168Q916.2732562777987 312.302050985792 930.1761199727907 312.302050985792L930.1761199727907 312.302050985792Q938.9415997971906 312.302050985792 948.0263520655255 316.4816175245786Q957.1111043338606 320.66118406336534 963.6416770507149 328.00445027387264L963.6416770507149 328.00445027387264L963.6416770507149 269.4324691955976ZM933.2237205739893 329.0493419085693L933.2237205739893 329.0493419085693Q922.1943088744133 329.0493419085693 914.4446959170796 334.4479486878355Q906.6950829597458 339.84655546710167 902.5155164209591 348.4378866857188Q898.3359498821724 357.00019313670543 898.3359498821724 366.9847132015849L898.3359498821724 366.9847132015849Q898.3359498821724 376.7950846606815 902.3994173504373 385.0671434353635Q906.4919095863327 393.310177442415 913.9512748673617 398.2153631719634Q921.3816153807602 403.1205489015117 931.191986839857 403.1205489015117L931.191986839857 403.1205489015117Q940.5669867844965 403.1205489015117 947.9102529950037 398.2153631719634Q955.2535192055109 393.310177442415 959.5491848148196 384.66079668853695Q963.8448504241281 375.9823911670285 963.6416770507149 365.1561528408656L963.6416770507149 365.1561528408656L963.4385036773017 345.56443469030296Q957.1111043338606 337.61164835955594 949.8549124262447 333.3159827502474Q942.598720518629 329.0493419085693 933.2237205739893 329.0493419085693ZM1057.1014288208069 312.302050985792L1057.1014288208069 312.302050985792Q1072.8038281088875 312.302050985792 1083.2237196882238 318.8326237026462Q1093.6436112675601 325.36319641950047 1098.8390446734131 336.5957814924898Q1104.034478079266 347.79934179784857 1104.034478079266 361.9053788662537L1104.034478079266 361.9053788662537L1104.034478079266 371.8898989311332L1025.667605477015 371.8898989311332Q1026.8866457174945 380.4522053821198 1031.5886580736294 387.62132298684423Q1036.2906704297645 394.76141582393825 1043.837110013685 398.940982362725Q1051.3835495976055 403.1205489015117 1061.193921056702 403.1205489015117L1061.193921056702 403.1205489015117Q1072.1943079886478 403.1205489015117 1081.801506074331 397.51876874883226Q1091.3796793923839 391.8879638285224 1097.9102521092382 385.15421773825483L1097.9102521092382 385.15421773825483L1097.7070787358248 403.3237222749249Q1094.8626515080396 406.80669439058045 1089.2318465877297 410.57991418254073Q1083.6300664350501 414.3531339745009 1076.3738745274345 416.90731352598175Q1069.146707387449 419.4324683098321 1061.193921056702 419.4324683098321L1061.193921056702 419.4324683098321Q1045.6656703744043 419.4324683098321 1033.620391807762 412.0892020993249Q1021.60413800875 404.7459358888176 1014.7542928479609 392.61358301928396Q1007.9044476871715 380.4522053821198 1007.9044476871715 365.9688463345186L1007.9044476871715 365.9688463345186Q1007.9044476871715 351.4854872869174 1014.2318470306125 339.23703534686194Q1020.5592463740534 326.98858340680636 1031.7047571441515 319.6453171962992Q1042.8212431466188 312.302050985792 1057.1014288208069 312.302050985792ZM1057.1014288208069 328.64299516174276L1057.1014288208069 328.64299516174276Q1044.4466301339248 328.64299516174276 1036.2906704297645 337.08920254220766Q1028.1347107256042 345.56443469030296 1026.0739522238414 357.60971325694516L1026.0739522238414 357.60971325694516L1087.5193852975324 357.60971325694516Q1086.4744936628356 347.5961684244353 1081.8885803772225 341.2687690809944Q1077.3026670916092 334.9703945051838 1070.772094374755 331.8066948334633Q1064.2415216579006 328.64299516174276 1057.1014288208069 328.64299516174276Z " fill="#29282" transform="matrix(0.8036335642842432,0,0,0.8036335642842434,-12.23910660179002,23.20254756195422)"/></g></svg>